<?xml version="1.0" encoding="UTF-8" standalone="no"?>
<!-- Created with Inkscape (http://www.inkscape.org/) -->

<svg
   version="1.1"
   id="svg19904"
   width="180"
   height="200"
   viewBox="0 0 180 200"
   sodipodi:docname="icon push.svg"
   inkscape:version="1.1.2 (b8e25be833, 2022-02-05)"
   inkscape:export-filename="C:\Users\ra00277923\Downloads\emojis insetos\emojis insetos\icon JUMp vetorizado.png"
   inkscape:export-xdpi="300"
   inkscape:export-ydpi="300"
   xmlns:inkscape="http://www.inkscape.org/namespaces/inkscape"
   xmlns:sodipodi="http://sodipodi.sourceforge.net/DTD/sodipodi-0.dtd"
   xmlns="http://www.w3.org/2000/svg"
   xmlns:svg="http://www.w3.org/2000/svg">
  <defs
     id="defs19908">
    <rect
       x="55.139013"
       y="67.051762"
       width="140.23008"
       height="75.220505"
       id="rect28147" />
  </defs>
  <sodipodi:namedview
     id="namedview19906"
     pagecolor="#ffffff"
     bordercolor="#666666"
     borderopacity="1.0"
     inkscape:pageshadow="2"
     inkscape:pageopacity="0.0"
     inkscape:pagecheckerboard="0"
     showgrid="false"
     inkscape:zoom="2.9380287"
     inkscape:cx="91.387807"
     inkscape:cy="82.708518"
     inkscape:window-width="1920"
     inkscape:window-height="1017"
     inkscape:window-x="-8"
     inkscape:window-y="-8"
     inkscape:window-maximized="1"
     inkscape:current-layer="layer10" />
  <g
     inkscape:groupmode="layer"
     id="g24204"
     inkscape:label="Image 1 copiar"
     style="display:inline">
    <g
       id="g24428"
       transform="matrix(0.00748745,1.1423913,-1.0791357,0.00707285,194.46724,0.01861778)">
      <rect
         style="fill:#ffffff;fill-opacity:1"
         id="rect24200"
         width="82.55114"
         height="83.995186"
         x="47.055286"
         y="88.19635" />
      <path
         sodipodi:type="star"
         style="fill:#ffffff;fill-opacity:1"
         id="path24202"
         inkscape:flatsided="true"
         sodipodi:sides="3"
         sodipodi:cx="83.754517"
         sodipodi:cy="55.114319"
         sodipodi:r1="54.958553"
         sodipodi:r2="27.479279"
         sodipodi:arg1="0.51262801"
         sodipodi:arg2="1.5598256"
         inkscape:rounded="0"
         inkscape:randomized="0"
         d="M 131.64862,82.069793 36.46334,83.11409 83.151591,0.15907284 Z"
         inkscape:transform-center-x="-0.45415532"
         inkscape:transform-center-y="-11.671954"
         transform="matrix(1.5064931,0,0,0.86601727,-36.507735,17.26241)" />
    </g>
    <path
       style="fill:#ffffff;fill-opacity:1"
       id="path24543"
       d="m 93.730935,24.461157 c 0.07211,2.132549 0.06393,4.266682 0.07324,6.400134 0.01524,1.632729 0.18976,3.251317 0.4191,4.86517 0.179181,1.183229 0.244699,2.377729 0.283327,3.572377 0.03072,1.23213 0.03256,2.464646 0.03889,3.69706 -0.0038,0.921222 0.03854,1.842128 -0.06241,2.759129 -0.02507,0.136318 -0.05013,0.272633 -0.0752,0.408951 0,0 2.914267,4.151741 2.914267,4.151741 v 0 c 0.03848,-0.145349 0.07698,-0.290698 0.115458,-0.436049 0.134769,-0.938644 0.133451,-1.871306 0.100647,-2.819995 -0.0074,-1.236976 -0.01522,-2.47404 -0.03587,-3.710861 -0.02511,-1.206454 -0.05704,-2.415242 -0.239932,-3.610462 -0.229226,-1.619703 -0.486607,-3.233838 -0.510386,-4.875111 -0.01835,-2.104686 -0.05551,-4.209892 -0.01012,-6.314469 0,0 -3.010956,-4.087616 -3.010956,-4.087616 z" />
    <path
       style="fill:#ffffff;fill-opacity:1"
       id="path24545"
       d="m 94.251785,152.15431 c 0.242081,2.07533 0.711709,4.11446 1.023742,6.18036 0.336279,2.53096 0.390124,5.08785 0.433283,7.6373 0.01795,1.50227 0.01569,3.00473 0.01505,4.50709 0.01574,1.08141 -0.126676,2.15658 -0.217859,3.23232 -0.06952,0.81614 -0.09476,1.63491 -0.098,2.45372 5e-5,0.53912 -3.16e-4,0.27034 0.0011,0.80634 0,0 3.010755,4.08913 3.010755,4.08913 v 0 c -0.0034,-0.53476 -0.0021,-0.26696 -0.0038,-0.80339 0.0022,-0.81605 0.0038,-1.63261 0.057,-2.44735 0.07373,-1.08975 0.233499,-2.17542 0.242914,-3.2666 -0.01284,-1.52841 -0.02723,-3.05679 -0.06231,-4.58492 -0.06032,-2.56035 -0.124838,-5.12523 -0.382261,-7.67469 -0.298371,-2.03018 -0.759801,-4.03586 -0.975995,-6.07492 0,0 -3.043574,-4.05439 -3.043574,-4.05439 z" />
  </g>
  <g
     inkscape:groupmode="layer"
     id="layer6"
     inkscape:label="Image 1"
     style="display:inline">
    <rect
       style="fill:#ff9955;fill-opacity:1"
       id="rect19937"
       width="82.55114"
       height="83.995186"
       x="61.18325"
       y="-98.762657"
       transform="rotate(89.624478)" />
    <path
       sodipodi:type="star"
       style="fill:#ff9955;fill-opacity:1"
       id="path24004"
       inkscape:flatsided="true"
       sodipodi:sides="3"
       sodipodi:cx="83.754517"
       sodipodi:cy="55.114319"
       sodipodi:r1="54.958553"
       sodipodi:r2="27.479279"
       sodipodi:arg1="0.51262801"
       sodipodi:arg2="1.5598256"
       inkscape:rounded="0"
       inkscape:randomized="0"
       d="M 131.64862,82.069793 36.46334,83.11409 83.151591,0.15907284 Z"
       inkscape:transform-center-x="-11.435258"
       inkscape:transform-center-y="0.61011082"
       transform="matrix(0.00987361,1.5064608,-0.86599867,0.00567591,169.54627,-23.491486)" />
  </g>
  <g
     inkscape:groupmode="layer"
     id="layer9"
     inkscape:label="Image 4"
     style="display:inline">
    <path
       style="fill:#ffffff;fill-opacity:1"
       id="path24554"
       d="m 34.640056,69.322713 c -3.032622,-0.595886 -6.15341,-0.709094 -9.236139,-0.591974 -1.515467,0.215934 -3.147428,0.626998 -4.086069,1.949721 -0.125473,0.176816 -0.213842,0.377234 -0.320758,0.56585 -0.573238,1.723205 -0.457465,3.589516 -0.459878,5.383374 0.0053,1.25931 0.03091,2.518353 0.0505,3.777482 0,0 2.953527,4.004212 2.953527,4.004212 v 0 c -0.01322,-1.255672 -0.02664,-2.511296 -0.04789,-3.766863 -0.01838,-1.731342 -0.09346,-3.501446 0.297111,-5.199099 0.786188,-1.751422 2.088431,-2.058933 3.883863,-2.374245 3.066643,-0.178745 6.188598,-0.04487 9.160255,0.794823 0,0 -2.194453,-4.543282 -2.194453,-4.543282 z" />
    <path
       style="fill:#ffffff;fill-opacity:1"
       id="path24556"
       d="m 155.38316,102.32606 c 1.13365,0.41048 2.88911,0.63139 3.76958,1.51662 0.14398,0.14475 0.22616,0.33996 0.33924,0.50995 -0.76201,-1.25963 -1.46432,-2.55736 -2.286,-3.77889 -0.10878,-0.16173 0.1178,0.37591 0.12789,0.57056 0.0118,0.22347 -0.0222,0.4484 -0.0636,0.6683 -0.18991,1.00644 -0.79138,1.6085 -1.46254,2.3419 -2.25068,2.14928 -4.61597,4.17475 -6.92231,6.26512 -1.77665,1.55289 -3.28327,3.37374 -4.97605,5.01104 -0.18024,0.17692 -0.36048,0.35384 -0.54072,0.53077 0,0 2.65059,4.26048 2.65059,4.26048 v 0 c 0.17369,-0.18313 0.34739,-0.36627 0.52107,-0.54939 1.65576,-1.6761 3.15351,-3.50522 4.91406,-5.07699 2.28211,-2.13063 4.6358,-4.17349 6.96381,-6.25222 1.07906,-1.05766 1.70514,-1.62783 1.92893,-3.16036 0.0333,-0.22832 0.14645,-0.48501 0.0423,-0.69094 -0.83701,-1.65556 -1.87866,-3.19946 -2.818,-4.799195 -0.15807,-0.146164 -0.29912,-0.31321 -0.4742,-0.438491 -1.14333,-0.818118 -2.64733,-0.943936 -3.90372,-1.51252 0,0 2.18972,4.584256 2.18972,4.584256 z" />
  </g>
  <g
     inkscape:groupmode="layer"
     id="layer10"
     inkscape:label="Image 5"
     style="display:inline">
    <text
       xml:space="preserve"
       id="text28145"
       style="font-style:normal;font-variant:normal;font-weight:normal;font-stretch:normal;font-size:32px;line-height:1.25;font-family:Eatday;-inkscape-font-specification:Eatday;white-space:pre;shape-inside:url(#rect28147);fill:#ffffff;fill-opacity:1;stroke:none"
       transform="matrix(1.0699081,-0.05553057,0.05575168,0.91885108,-31.2061,33.472108)"><tspan
         x="55.138672"
         y="94.706005"
         id="tspan53960">push</tspan></text>
  </g>
  <g
     inkscape:groupmode="layer"
     id="layer7"
     inkscape:label="Image 2"
     style="display:none" />
</svg>
